<svg xmlns="http://www.w3.org/2000/svg" width="1000" height="1000" viewBox="0 0 1000 1000">
  <metadata><?xpacket begin="﻿" id="W5M0MpCehiHzreSzNTczkc9d"?>
<x:xmpmeta xmlns:x="adobe:ns:meta/" x:xmptk="Adobe XMP Core 5.6-c140 79.160451, 2017/05/06-01:08:21        ">
   <rdf:RDF xmlns:rdf="http://www.w3.org/1999/02/22-rdf-syntax-ns#">
      <rdf:Description rdf:about=""/>
   </rdf:RDF>
</x:xmpmeta>
                                                                                                    
                                                                                                    
                                                                                                    
                                                                                                    
                                                                                                    
                                                                                                    
                                                                                                    
                                                                                                    
                                                                                                    
                                                                                                    
                                                                                                    
                                                                                                    
                                                                                                    
                                                                                                    
                                                                                                    
                                                                                                    
                                                                                                    
                                                                                                    
                                                                                                    
                                                                                                    
                           
<?xpacket end="w"?></metadata>
<defs>
    <style>
      .cls-1, .cls-3 {
        font-size: 75px;
        fill: #006;
      }

      .cls-1 {
        font-family: "Arial Black";
      }

      .cls-2 {
        fill-rule: evenodd;
        opacity: 0.16;
      }

      .cls-3 {
        font-family: Copperplate;
        font-weight: 300;
      }
    </style>
  </defs>
  <text id="NSPAI" class="cls-1" x="343.85" y="364.252">NSPAI</text>
  <path class="cls-2" d="M135,309a17,17,0,1,1-17,17A17,17,0,0,1,135,309Zm28,177a8,8,0,1,1-8,8A8,8,0,0,1,163,486Zm89,12a4,4,0,1,1-4,4A4,4,0,0,1,252,498ZM213,367a5,5,0,1,1-5,5A5,5,0,0,1,213,367Zm63,0a14,14,0,1,1-14,14A14,14,0,0,1,276,367Zm19,135a15,15,0,1,1-15,15A15,15,0,0,1,295,502Zm57-27a9,9,0,1,1-9,9A9,9,0,0,1,352,475Zm28-85a7,7,0,1,1-7,7A7,7,0,0,1,380,390Zm31,113a8,8,0,1,1-8,8A8,8,0,0,1,411,503Zm64,41a2,2,0,1,1-2,2A2,2,0,0,1,475,544Zm19-69a8,8,0,1,1-8,8A8,8,0,0,1,494,475Zm130-94a10,10,0,1,1-10,10A10,10,0,0,1,624,381ZM518,242a8,8,0,1,1-8,8A8,8,0,0,1,518,242Zm159,38a8,8,0,1,1-8,8A8,8,0,0,1,677,280Zm55,85a6,6,0,1,1-6,6A6,6,0,0,1,732,365Zm77-8a8,8,0,1,1-8,8A8,8,0,0,1,809,357ZM719,492a15,15,0,1,1-15,15A15,15,0,0,1,719,492Zm-77,27a7,7,0,1,1-7,7A7,7,0,0,1,642,519Zm157,15a7,7,0,1,1-7,7A7,7,0,0,1,799,534Zm68-151a5,5,0,1,1-5,5A5,5,0,0,1,867,383ZM518,593a4,4,0,1,1-4,4A4,4,0,0,1,518,593Zm96,9a5,5,0,1,1-5,5A5,5,0,0,1,614,602ZM356,569a6,6,0,1,1-6,6A6,6,0,0,1,356,569Zm-126-4a6,6,0,1,1-6,6A6,6,0,0,1,230,565Zm-54,31a4,4,0,1,1-4,4A4,4,0,0,1,176,596Zm-63-59a7,7,0,1,1-7,7A7,7,0,0,1,113,537Zm48-9a12,12,0,1,1-12,12A12,12,0,0,1,161,528Zm-58,54a7,7,0,1,1-7,7A7,7,0,0,1,103,582Zm449-57a15,15,0,1,1-15,15A15,15,0,0,1,552,525Zm212,85a4,4,0,1,1-4,4A4,4,0,0,1,764,610Zm104-50a7,7,0,1,1-7,7A7,7,0,0,1,868,560Zm40-231a8,8,0,1,1-8,8A8,8,0,0,1,908,329ZM883,493a7,7,0,1,1-7,7A7,7,0,0,1,883,493Zm77-108a7,7,0,1,1-7,7A7,7,0,0,1,960,385ZM948,525a6,6,0,1,1-6,6A6,6,0,0,1,948,525Zm-62,81a8,8,0,1,1-8,8A8,8,0,0,1,886,606Z"/>
  <text id="Covid19_-_Tracker" data-name="Covid19 - Tracker" class="cls-3" x="52.794" y="467.328">Covid19 - Tracker</text>
</svg>
